<svg width="360" height="58" viewBox="0 0 360 58" fill="none" xmlns="http://www.w3.org/2000/svg">
<path d="M35.84 44.64C33.4934 44.64 31.36 43.9574 29.44 42.592C27.52 41.184 25.5146 38.7734 23.424 35.36L17.024 24.672H14.464V44H6.07996V10.08C6.07996 7.90401 5.7813 6.30401 5.18396 5.28001C4.58662 4.21335 3.39196 3.68001 1.59996 3.68001H0.959961V1.76001H18.624C23.0614 1.76001 27.0506 2.57067 30.592 4.19201C34.1334 5.81335 35.904 8.92801 35.904 13.536C35.904 18.8694 32.448 22.4106 25.536 24.16L32.256 35.36C34.7734 39.584 37.4186 41.9306 40.192 42.4V44C39.8506 44.1706 39.232 44.32 38.336 44.448C37.44 44.576 36.608 44.64 35.84 44.64ZM18.304 22.112C20.6934 22.112 22.72 21.408 24.384 20C26.0906 18.5494 26.944 16.288 26.944 13.216C26.944 10.1867 26.112 7.94667 24.448 6.49601C22.784 5.04535 20.8426 4.32001 18.624 4.32001C17.3866 4.32001 16.4266 4.40535 15.744 4.57601L14.464 4.76801V22.112H18.304ZM56.0256 44.64C53.0816 44.64 50.5002 43.9574 48.2816 42.592C46.0628 41.2266 44.3348 39.3706 43.0976 37.024C41.9028 34.6346 41.3056 31.9466 41.3056 28.96C41.3056 25.632 41.9028 22.7946 43.0976 20.448C44.3348 18.1014 46.0202 16.3307 48.1536 15.136C50.2868 13.8987 52.6976 13.28 55.3854 13.28C58.0308 13.28 60.4202 13.8134 62.5536 14.88C64.6868 15.9467 66.3722 17.4614 67.6096 19.424C68.8468 21.344 69.4656 23.5626 69.4656 26.08C69.4656 26.8906 69.4228 27.808 69.3376 28.832L69.2096 30.112H49.9456C49.9456 34.1654 50.5642 37.1306 51.8016 39.008C53.0388 40.8426 54.7668 41.76 56.9856 41.76C59.0336 41.76 60.7402 41.312 62.1056 40.416C63.5136 39.4774 64.8576 38.1546 66.1376 36.448L68.1216 37.92C66.8842 39.84 65.3268 41.44 63.4496 42.72C61.6148 44 59.1402 44.64 56.0256 44.64ZM60.8256 27.232C60.8256 23.2214 60.3562 20.384 59.4176 18.72C58.4788 17.0134 57.1348 16.16 55.3854 16.16C53.7642 16.16 52.4416 17.0347 51.4176 18.784C50.4362 20.4906 49.9456 23.3066 49.9456 27.232H60.8256ZM89.164 44.64C85.8786 44.64 83.084 43.936 80.78 42.528C78.476 41.12 76.7266 39.2426 75.532 36.896C74.38 34.5066 73.804 31.8614 73.804 28.96C73.804 26.0586 74.38 23.4346 75.532 21.088C76.7266 18.6987 78.476 16.8 80.78 15.392C83.084 13.984 85.8786 13.28 89.164 13.28C94.284 13.28 97.5906 14.0267 99.084 15.52C99.8094 16.2454 100.257 17.2054 100.428 18.4C100.599 19.5947 100.684 21.6214 100.684 24.48H98.764C98.5934 21.792 97.7614 19.744 96.268 18.336C94.7746 16.8854 92.7266 16.16 90.124 16.16C87.7774 16.16 85.9 17.248 84.492 19.424C83.1266 21.5574 82.444 24.736 82.444 28.96C82.444 37.4934 85.1106 41.76 90.444 41.76C92.492 41.76 94.1986 41.312 95.564 40.416C96.972 39.4774 98.316 38.1546 99.596 36.448L101.58 37.92C100.343 39.84 98.7854 41.44 96.908 42.72C95.0306 44 92.4494 44.64 89.164 44.64ZM112.466 10.464C110.93 10.464 109.735 9.99467 108.882 9.05601C108.071 8.11735 107.666 6.96535 107.666 5.60001C107.666 4.49067 107.986 3.61601 108.626 2.97601C109.309 2.33601 110.162 2.01601 111.186 2.01601C112.722 2.01601 113.895 2.48535 114.706 3.42401C115.559 4.36267 115.986 5.51467 115.986 6.88001C115.986 7.98935 115.645 8.86401 114.962 9.50401C114.322 10.144 113.49 10.464 112.466 10.464ZM108.306 22.24C108.306 20.064 108.007 18.464 107.41 17.44C106.813 16.3734 105.618 15.84 103.826 15.84H103.186V13.92H110.866C112.402 13.92 113.575 14.176 114.386 14.688C115.197 15.2 115.773 16.0534 116.114 17.248C116.455 18.4 116.626 20.064 116.626 22.24V44H108.306V22.24ZM125.433 22.24C125.433 20.064 125.134 18.464 124.536 17.44C123.982 16.3734 122.809 15.84 121.017 15.84H120.377V13.92H126.713C128.206 13.92 129.358 14.1334 130.169 14.56C130.979 14.944 131.619 15.6267 132.089 16.608C134.606 14.3894 137.507 13.28 140.793 13.28C145.102 13.28 148.409 14.752 150.713 17.696C153.059 20.5974 154.233 24.352 154.233 28.96C154.233 33.568 153.038 37.344 150.649 40.288C148.302 43.1894 144.91 44.64 140.473 44.64C138.723 44.64 137.081 44.32 135.545 43.68C134.862 43.424 134.265 43.104 133.753 42.72V56.16H125.433V22.24ZM139.193 41.76C143.459 41.76 145.593 37.4934 145.593 28.96C145.593 25.0346 145.102 21.92 144.121 19.616C143.139 17.312 141.603 16.16 139.513 16.16C137.123 16.16 135.054 17.0347 133.305 18.784L133.497 19.68C133.667 20.192 133.753 20.9174 133.753 21.856V39.84C134.222 40.224 134.734 40.544 135.289 40.8C136.483 41.44 137.785 41.76 139.193 41.76ZM173.713 44.64C170.769 44.64 168.188 43.9574 165.969 42.592C163.75 41.2266 162.022 39.3706 160.785 37.024C159.59 34.6346 158.993 31.9466 158.993 28.96C158.993 25.632 159.59 22.7946 160.785 20.448C162.022 18.1014 163.708 16.3307 165.841 15.136C167.974 13.8987 170.385 13.28 173.073 13.28C175.718 13.28 178.108 13.8134 180.241 14.88C182.374 15.9467 184.06 17.4614 185.297 19.424C186.534 21.344 187.153 23.5626 187.153 26.08C187.153 26.8906 187.11 27.808 187.025 28.832L186.897 30.112H167.633C167.633 34.1654 168.252 37.1306 169.489 39.008C170.726 40.8426 172.454 41.76 174.673 41.76C176.721 41.76 178.428 41.312 179.793 40.416C181.201 39.4774 182.545 38.1546 183.825 36.448L185.809 37.92C184.572 39.84 183.014 41.44 181.137 42.72C179.302 44 176.828 44.64 173.713 44.64ZM178.513 27.232C178.513 23.2214 178.044 20.384 177.105 18.72C176.166 17.0134 174.822 16.16 173.073 16.16C171.452 16.16 170.129 17.0347 169.105 18.784C168.124 20.4906 167.633 23.3066 167.633 27.232H178.513ZM211.268 10.08C211.268 7.90401 210.968 6.30401 210.372 5.28001C209.774 4.21335 208.58 3.68001 206.788 3.68001H206.148V1.76001H223.556C232.174 1.76001 238.724 3.59467 243.204 7.26401C247.726 10.8907 249.988 16.0107 249.988 22.624C249.988 26.848 249.028 30.5814 247.108 33.824C245.23 37.024 242.414 39.52 238.66 41.312C234.948 43.104 230.468 44 225.22 44H211.268V10.08ZM225.028 41.44C228.014 41.44 230.66 40.6934 232.964 39.2C235.31 37.7066 237.124 35.552 238.404 32.736C239.726 29.92 240.388 26.6346 240.388 22.88C240.388 19.168 239.726 15.9254 238.404 13.152C237.124 10.336 235.31 8.16001 232.964 6.62401C230.616 5.08801 227.928 4.32001 224.9 4.32001H224.388C222.98 4.32001 221.848 4.40535 220.996 4.57601L219.588 4.76801V40.992L220.996 41.248C221.892 41.376 223.022 41.44 224.388 41.44H225.028ZM261.528 10.464C259.992 10.464 258.798 9.99467 257.944 9.05601C257.134 8.11735 256.728 6.96535 256.728 5.60001C256.728 4.49067 257.048 3.61601 257.688 2.97601C258.372 2.33601 259.224 2.01601 260.248 2.01601C261.784 2.01601 262.958 2.48535 263.768 3.42401C264.622 4.36267 265.048 5.51467 265.048 6.88001C265.048 7.98935 264.708 8.86401 264.024 9.50401C263.384 10.144 262.552 10.464 261.528 10.464ZM257.368 22.24C257.368 20.064 257.07 18.464 256.472 17.44C255.876 16.3734 254.68 15.84 252.888 15.84H252.248V13.92H259.928C261.464 13.92 262.638 14.176 263.448 14.688C264.26 15.2 264.836 16.0534 265.176 17.248C265.518 18.4 265.688 20.064 265.688 22.24V44H257.368V22.24ZM282.112 44.64C278.656 44.64 275.968 43.872 274.048 42.336C272.17 40.7574 271.232 38.6454 271.232 36C271.232 33.8666 271.722 32.096 272.704 30.688C273.728 29.28 275.498 28.2134 278.016 27.488C280.532 26.7626 284.032 26.4 288.512 26.4H289.472C289.472 22.688 288.96 20.064 287.936 18.528C286.912 16.9494 285.396 16.16 283.392 16.16C281.728 16.16 280.362 16.5654 279.296 17.376C278.228 18.1867 277.46 19.7014 276.992 21.92H273.472C273.472 20.4694 273.556 19.232 273.728 18.208C273.94 17.184 274.388 16.288 275.072 15.52C276.394 14.0267 279.594 13.28 284.672 13.28C288.938 13.28 292.18 14.4107 294.4 16.672C296.66 18.8907 297.792 22.24 297.792 26.72V44H292.352L290.112 41.12H289.792C289.408 41.7174 288.81 42.3146 288 42.912C286.548 44.064 284.586 44.64 282.112 44.64ZM284.032 41.44C284.928 41.44 285.696 41.2694 286.336 40.928C286.976 40.544 287.594 40.032 288.19 39.392C288.746 38.7946 289.172 38.0906 289.472 37.28V29.28H288.512C285.482 29.28 283.284 29.8346 281.92 30.944C280.554 32.0106 279.872 33.696 279.872 36C279.872 37.7494 280.234 39.0934 280.96 40.032C281.684 40.9706 282.708 41.44 284.032 41.44ZM325.51 14.56C326.278 15.1147 326.832 15.7334 327.174 16.416C327.514 17.056 327.686 17.3974 327.686 17.44L324.422 19.936C324.122 19.552 323.738 19.1467 323.27 18.72C322.33 17.8667 321.242 17.44 320.006 17.44C317.53 17.44 315.632 18.1014 314.31 19.424L314.438 20.384C314.522 21.152 314.566 21.856 314.566 22.496V44H306.246V22.24C306.246 20.064 305.946 18.464 305.348 17.44C304.794 16.3734 303.622 15.84 301.83 15.84H301.19V13.92H307.526C308.976 13.92 310.106 14.112 310.918 14.496C311.77 14.8374 312.432 15.4347 312.902 16.288C315.206 14.2827 317.894 13.28 320.966 13.28C322.8 13.28 324.314 13.7067 325.51 14.56ZM333.764 54.56C336.11 54.56 338.008 54.112 339.46 53.216C340.91 52.32 342.084 50.6986 342.98 48.352L344.322 44.896L332.804 19.68C331.396 16.608 329.412 14.9014 326.85 14.56V13.28H332.484C334.36 13.28 336.024 13.7494 337.476 14.688C338.926 15.584 340.036 16.8214 340.804 18.4L348.164 34.528L355.972 13.92H359.364L346.436 48.16C345.24 51.488 343.854 53.7494 342.276 54.944C340.696 56.1814 338.712 56.8 336.322 56.8H333.764V54.56Z" fill="#2B2A27"/>
</svg>
